HIERARCHY
ROOT Hips
{
  OFFSET 90.7885 88.945 -76.2838
  CHANNELS 6 Xposition Yposition Zposition Zrotation Xrotation Yrotation
  JOINT LeftUpLeg
  {
    OFFSET 8.64259 1.95398 -2.38835
    CHANNELS 3 Zrotation Xrotation Yrotation
    JOINT LeftLeg
    {
      OFFSET 43.7702 0 0
      CHANNELS 3 Zrotation Xrotation Yrotation
      JOINT LeftFoot
      {
        OFFSET 40.6238 0 0
        CHANNELS 3 Zrotation Xrotation Yrotation
        JOINT LeftToeBase
        {
          OFFSET 12.7242 0 0
          CHANNELS 3 Zrotation Xrotation Yrotation
          End Site
          {
            OFFSET 0 0 0
          }
        }
      }
    }
  }
  JOINT RightUpLeg
  {
    OFFSET -8.2249 1.95398 -2.59336
    CHANNELS 3 Zrotation Xrotation Yrotation
    JOINT RightLeg
    {
      OFFSET 43.5653 0 0
      CHANNELS 3 Zrotation Xrotation Yrotation
      JOINT RightFoot
      {
        OFFSET 40.6238 0 0
        CHANNELS 3 Zrotation Xrotation Yrotation
        JOINT RightToeBase
        {
          OFFSET 12.7242 0 0
          CHANNELS 3 Zrotation Xrotation Yrotation
          End Site
          {
            OFFSET 0 0 0
          }
        }
      }
    }
  }
  JOINT Spine
  {
    OFFSET 0.165834 0.87714 6.61349
    CHANNELS 3 Zrotation Xrotation Yrotation
    JOINT Spine1
    {
      OFFSET 7.38963 1.71661e-005 0
      CHANNELS 3 Zrotation Xrotation Yrotation
      JOINT Spine2
      {
        OFFSET 11.9445 1.14441e-005 0
        CHANNELS 3 Zrotation Xrotation Yrotation
        JOINT Spine3
        {
          OFFSET 14.7254 4.19617e-005 0
          CHANNELS 3 Zrotation Xrotation Yrotation
          JOINT Spine4
          {
            OFFSET 10.9679 0 0
            CHANNELS 3 Zrotation Xrotation Yrotation
            JOINT RightShoulder
            {
              OFFSET 2.46616 -1.6653 3.69651
              CHANNELS 3 Zrotation Xrotation Yrotation
              JOINT RightArm
              {
                OFFSET 13.0012 0 0
                CHANNELS 3 Zrotation Xrotation Yrotation
                JOINT RightForeArm
                {
                  OFFSET 28.7848 1.52588e-005 0
                  CHANNELS 3 Zrotation Xrotation Yrotation
                  JOINT RightHand
                  {
                    OFFSET 26.5688 1.52588e-005 0
                    CHANNELS 3 Zrotation Xrotation Yrotation
                    End Site
                    {
                      OFFSET 0 0 0
                    }
                  }
                }
              }
            }
            JOINT LeftShoulder
            {
              OFFSET 2.38034 -1.29275 -3.7523
              CHANNELS 3 Zrotation Xrotation Yrotation
              JOINT LeftArm
              {
                OFFSET 16.3182 6.10352e-005 0
                CHANNELS 3 Zrotation Xrotation Yrotation
                JOINT LeftForeArm
                {
                  OFFSET 27.0901 0 0
                  CHANNELS 3 Zrotation Xrotation Yrotation
                  JOINT LeftHand
                  {
                    OFFSET 24.5451 1.52588e-005 0
                    CHANNELS 3 Zrotation Xrotation Yrotation
                    End Site
                    {
                      OFFSET 0 0 0
                    }
                  }
                }
              }
            }
            JOINT Neck
            {
              OFFSET 5.0226 -0.0266342 0
              CHANNELS 3 Zrotation Xrotation Yrotation
              JOINT Head
              {
                OFFSET 6.69363 2.86102e-005 0
                CHANNELS 3 Zrotation Xrotation Yrotation
                End Site
                {
                  OFFSET 0 0 0
                }
              }
            }
          }
        }
      }
    }
  }
}
MOTION
Frames:	6
Frame Time:	0.0416667
110.595 25.888 117.326 -24.1557 -13.7629 -99.6863 -125.585 60.5293 93.3535 -115.589 2.97628 4.32794 67.7397 2.13741 5.17273 3.32671 4.46221 -0.664727 136.987 18.1101 55.0614 -47.5341 -26.7169 12.8384 46.8846 5.10468 5.56335 35.7628 -2.19488 4.26106 -1.41705 8.92423 -87.4201 9.0359 -1.67505 5.22489 -2.64474 -1.44381 5.29328 -25.1227 -3.16644 4.48236 -5.11005 -3.16644 4.48235 93.0635 -13.6277 -107.084 33.4084 35.6677 -33.2094 -67.0015 19.6535 -120.371 -19.9249 -5.00729 9.41576 -89.226 -37.5136 76.9964 -2.04184 -35.2135 -40.6656 44.5213 -26.5189 -119.318 1.97767 0.420959 9.03595 50.0601 -3.23894 -6.28938 -11.6013 0.786522 -0.931972 
109.772 25.2299 116.932 -24.9728 -12.9828 -101.363 -129.041 57.5815 97.5773 -114.134 6.58336 3.52924 67.5127 2.3222 5.46949 2.51112 4.69305 -0.733203 136.04 17.8568 53.5285 -48.1989 -16.3401 12.2155 48.844 3.95114 4.65194 33.9981 -1.523 2.692 -1.51585 8.76881 -87.7199 9.35798 -1.99862 4.66591 -2.32007 -1.79155 4.7491 -24.8186 -3.3076 3.85133 -4.80588 -3.3076 3.85135 93.6413 -12.9048 -105.911 29.408 22.3976 -36.2618 -71.2816 22.9115 -112.308 -15.0743 -3.81895 7.39213 -86.4741 -24.8548 78.6263 -14.8116 -51.5784 -48.3658 43.4229 -16.6765 -118.229 -2.00249 -0.0660957 6.6899 48.7476 0.672272 -0.239738 -10.5936 0.969947 -2.31526 
109.297 24.6901 116.435 -24.3118 -11.0594 -100.584 -127.327 58.1282 99.4232 -113.477 5.44013 2.9434 66.3356 1.98572 5.69927 3.00693 5.19973 -1.28744 137.521 17.1632 54.8378 -48.3223 -15.6342 12.1849 50.504 3.47271 3.87873 32.1003 -1.63283 3.33797 -1.45398 8.44171 -88.3465 10.0104 -2.14585 3.45849 -1.66369 -1.99163 3.54945 -24.1889 -3.08572 2.65432 -4.17625 -3.08571 2.65431 93.7332 -12.8924 -105.668 23.7223 13.7049 -39.8656 -71.5092 20.4004 -107.438 -15.6912 -3.6569 5.02007 -82.9364 -5.82135 80.6243 -31.4337 -58.2174 -65.3938 45.0806 -5.63986 -109.794 -6.8813 -0.329004 1.13097 45.9688 5.36218 4.50886 -9.46371 2.79103 -3.61032 
109.427 25.073 115.795 -19.0771 -7.80042 -97.8181 -119.643 62.7545 95.1056 -113.374 6.05206 2.36356 65.6081 1.92383 5.98639 3.97344 4.25455 -0.586498 140.843 20.0611 61.0386 -51.895 -10.5237 12.0951 54.2945 1.36593 3.01576 31.9115 -2.00792 4.32116 -1.13736 7.82799 -89.0676 11.2327 -1.82976 2.0377 -0.438607 -1.73834 2.11621 -22.9773 -2.35751 1.3936 -2.96466 -2.35752 1.39358 93.9034 -12.8976 -105.2 18.0549 6.5979 -43.9268 -74.6379 20.6228 -102.178 -12.8253 -3.11679 3.93691 -81.118 5.15069 82.1209 -37.7969 -55.853 -76.3301 47.6875 4.98795 -96.946 -13.0591 0.300891 -8.12451 46.0984 8.52027 8.23964 -9.94429 3.82245 -4.84625 
109.954 25.9702 115.178 -12.5978 -3.50336 -93.4154 -105.021 69.8589 84.2844 -113.77 2.7163 1.8936 65.0219 1.81371 4.20347 3.75173 4.96229 -1.20948 144.498 22.6602 70.4917 -54.8905 -2.6588 12.4818 64.4028 -2.98816 1.01691 30.8181 -2.02294 4.51471 -0.63712 7.18806 -89.7852 12.501 -1.16344 0.563485 0.830459 -1.1375 0.614164 -21.7087 -1.27898 0.187734 -1.69607 -1.27899 0.18771 93.8011 -14.0304 -104.918 13.3796 1.21963 -47.3636 -78.6563 22.3287 -97.5478 -7.10662 -2.34758 1.94949 -80.0889 10.4831 84.406 -39.2204 -50.8397 -82.0823 50.284 9.49676 -89.0369 -10.4468 0.585857 -13.931 47.1857 10.5558 9.96017 -11.1631 4.82084 -5.90805 
109.652 26.1771 115.445 -11.9243 -1.69981 -95.0471 -103.735 67.1693 84.6146 -112.797 2.1607 0.722433 65.7678 2.19403 3.71853 2.83677 6.06897 -2.05849 144.435 24.4561 70.9354 -56.8391 1.95902 12.1807 73.7119 -7.32797 0.366063 28.9468 -1.76703 4.14795 -0.609584 7.16726 -89.8138 12.5422 -1.12227 0.502089 0.871623 -1.09911 0.550985 -21.6673 -1.22129 0.141534 -1.65464 -1.22129 0.14155 93.2165 -15.3904 -105.789 8.93211 -1.34095 -49.6221 -80.9222 22.9199 -94.8861 -3.3445 -1.91772 0.926905 -79.717 12.4717 85.2229 -40.075 -51.0741 -81.7286 48.2621 10.1611 -87.8316 -11.7306 0.48561 -11.3807 47.5992 11.1341 10.0625 -11.0713 5.24556 -5.70904 
